<svg width="60" height="55" viewBox="0 0 60 55" fill="none" xmlns="http://www.w3.org/2000/svg">
    <path
        d="M54.3614 40.0175C54.4966 38.9256 54.6206 37.9404 54.7414 36.9552C54.8167 36.3404 54.8684 35.7205 54.9675 35.1089C55.0945 34.3244 55.7336 33.8452 56.4677 33.9466C57.2359 34.0501 57.6778 34.6866 57.5766 35.528C57.1905 38.7259 56.8054 41.9241 56.4213 45.1227C56.2592 46.4764 55.4631 47.0249 54.1704 46.6379C50.7287 45.6029 47.2869 44.5639 43.8452 43.5207C42.9728 43.2557 42.5608 42.5541 42.8127 41.7975C43.0481 41.0897 43.8039 40.774 44.6454 41.0327L49.7564 42.6006C49.8834 42.4019 49.7461 42.3026 49.6831 42.196C47.3888 38.3088 45.0935 34.4231 42.7972 30.5387C40.7535 27.0848 38.7088 23.6313 36.6631 20.1781C36.3585 19.6606 36.3471 19.6534 35.9031 20.0974C33.4554 22.5425 31.0118 24.9918 28.5723 27.4453C27.6358 28.384 26.7138 29.3381 25.7618 30.2592C24.1665 31.8033 22.1108 31.3355 21.3013 29.2667C18.4949 22.0913 15.6872 14.9183 12.8781 7.74767C12.7593 7.4372 12.6426 7.13603 12.5177 6.83384C11.9333 5.42531 12.5022 3.92986 13.8373 3.36893C15.1548 2.81628 16.6013 3.42999 17.1919 4.83851C17.7082 6.08042 18.178 7.33888 18.6684 8.59009C19.8083 11.4927 20.9482 14.3953 22.0881 17.2979C22.8487 19.2387 23.6086 21.1799 24.3679 23.1214C24.4309 23.2818 24.498 23.4401 24.5558 23.6026C24.6735 23.9317 24.8098 24.0011 25.0896 23.7185C26.8958 21.8985 28.7086 20.0843 30.5279 18.2759C32.0136 16.7918 33.4788 15.286 34.9894 13.8258C36.3316 12.5269 38.1674 12.7836 39.1401 14.4022C40.7725 17.1189 42.3708 19.8562 43.9857 22.5843L54.1693 39.795C54.2287 39.8731 54.2928 39.9474 54.3614 40.0175Z"
        fill="#2857bb" />
    <path
        d="M1.79298 55C0.409412 55 0.00260167 54.5943 0.00260167 53.223C0.00260167 36.0434 0.00260167 18.8655 0.00260167 1.68926C-0.00396357 1.49969 0.00189992 1.30989 0.0201544 1.12109C0.066065 0.8199 0.214548 0.543919 0.440396 0.339994C0.666244 0.136069 0.955539 0.0167665 1.25917 0.00233928C1.56364 -0.0164121 1.8643 0.0780698 2.10359 0.267692C2.34287 0.457314 2.50397 0.728748 2.55601 1.03001C2.70159 1.9366 2.59628 2.85458 2.6159 3.76737C2.63035 4.45456 2.62829 4.46491 3.30562 4.46698C4.54463 4.46698 5.78365 4.46698 7.02267 4.46698C7.2458 4.46213 7.46879 4.48191 7.68761 4.52597C8.37216 4.68535 8.78827 5.26904 8.72012 5.93243C8.68413 6.24398 8.53583 6.53163 8.30309 6.74128C8.07035 6.95092 7.76922 7.06812 7.45632 7.07084C6.14813 7.09257 4.84096 7.08119 3.53277 7.08222C3.3952 7.08947 3.25734 7.08947 3.11976 7.08222C2.72844 7.04393 2.6159 7.23539 2.61796 7.59968C2.62932 9.23796 2.62312 10.8773 2.62312 12.5155C2.62312 12.9637 2.63861 13.4128 2.61796 13.8609C2.59938 14.2677 2.77284 14.4094 3.16726 14.4053C4.40628 14.3919 5.64529 14.3981 6.88431 14.4053C7.12618 14.402 7.36792 14.4186 7.60707 14.455C8.30815 14.575 8.75523 15.1132 8.72941 15.7797C8.70257 16.4648 8.18631 16.9854 7.44497 17.0061C6.49918 17.033 5.55237 17.0154 4.60555 17.0174C4.08929 17.0174 3.57304 17.0268 3.05678 17.0174C2.74703 17.0112 2.62519 17.1447 2.62622 17.45C2.62622 19.5882 2.63345 21.7274 2.62622 23.8665C2.62622 24.2805 2.84305 24.3498 3.18275 24.3478C4.38769 24.3395 5.5916 24.3416 6.79655 24.3478C7.05442 24.3483 7.31202 24.3649 7.56784 24.3974C8.2906 24.4937 8.76349 25.037 8.73148 25.7273C8.70877 26.0608 8.5592 26.3727 8.31365 26.5988C8.0681 26.8249 7.74531 26.9479 7.41193 26.9423C6.03558 26.9599 4.65821 26.9703 3.28187 26.9423C2.76561 26.9309 2.59525 27.0872 2.60247 27.615C2.62932 29.6145 2.6128 31.616 2.61486 33.6175C2.61486 34.2613 2.63345 34.2758 3.29013 34.2768H6.69743C6.88638 34.2768 7.07533 34.2768 7.26531 34.2768C8.12952 34.2975 8.73148 34.8563 8.71702 35.6222C8.70463 36.3528 8.10474 36.8775 7.24466 36.8858C6.00564 36.8962 4.76662 36.8858 3.52761 36.8858C2.6128 36.8858 2.61177 36.8858 2.6128 37.8172C2.6128 39.7318 2.63035 41.6464 2.6128 43.561C2.6066 44.0557 2.76148 44.2224 3.26019 44.212C4.60245 44.1851 5.94472 44.2037 7.28699 44.2058C7.89101 44.2058 8.36597 44.4469 8.61584 45.011C8.99787 45.8813 8.35771 46.8003 7.33449 46.8128C5.99222 46.8345 4.64995 46.8179 3.30768 46.819C2.61899 46.819 2.61693 46.819 2.61693 47.5041C2.61693 48.9012 2.61693 50.2984 2.61693 51.6955C2.61693 52.3713 2.61693 52.3786 3.31801 52.3786H33.1577C41.1762 52.3786 49.1954 52.3786 57.2153 52.3786C57.4903 52.3752 57.7648 52.4044 58.033 52.4655C58.3271 52.5379 58.5857 52.7133 58.7621 52.96C58.9386 53.2067 59.0213 53.5085 58.9953 53.8109C58.9664 54.1049 58.8379 54.3801 58.6313 54.5908C58.4247 54.8015 58.1523 54.9349 57.8596 54.969C57.6367 54.9874 57.4129 54.9929 57.1894 54.9855L1.79298 55Z"
        fill="#2857bb" />
    <path
        d="M13.4852 47.9356C13.4852 48.6466 13.4738 48.6601 12.7624 48.6601C12.3494 48.6601 11.9364 48.6404 11.5234 48.6663C11.0278 48.6984 10.8616 48.4893 10.8636 48.0019C10.8781 45.2418 10.8698 42.4827 10.8698 39.7225C10.8698 33.4792 10.8698 27.2352 10.8698 20.9905C10.8698 20.8187 10.8698 20.6459 10.8801 20.473C10.8915 20.204 11.0226 20.0642 11.3024 20.0673C11.8868 20.0673 12.4723 20.0725 13.0577 20.0673C13.3675 20.0673 13.4924 20.2143 13.48 20.5113C13.4728 20.6666 13.48 20.8218 13.48 20.977L13.4852 47.9356Z"
        fill="#2857bb" />
    <path
        d="M33.0689 38.5748C33.0689 35.3873 33.0689 32.1997 33.0689 29.0121C33.0689 28.2556 33.0792 28.2463 33.8567 28.2463C34.3027 28.2463 34.7508 28.2649 35.199 28.2463C35.6471 28.2277 35.7544 28.4647 35.7514 28.8517C35.7452 30.0409 35.7514 31.2321 35.7514 32.4181C35.7514 37.6216 35.7514 42.8252 35.7514 48.0288C35.7514 48.8774 35.7462 48.8816 34.882 48.8816C34.469 48.8816 34.056 48.865 33.643 48.8816C33.168 48.9064 33.0658 48.6518 33.0678 48.2409C33.0751 45.9496 33.0678 43.6583 33.0678 41.366C33.0678 40.4359 33.0682 39.5055 33.0689 38.5748Z"
        fill="#2857bb" />
    <path
        d="M19.0546 39.5052C19.0546 42.3326 19.0432 45.16 19.0649 47.9915C19.0649 48.5173 18.8945 48.7098 18.3814 48.6715C17.9684 48.6415 17.5553 48.6715 17.1423 48.6642C16.4795 48.6591 16.4361 48.6187 16.4351 47.9625C16.4351 45.5139 16.4351 43.0646 16.4351 40.6146V31.2031C16.4351 30.3099 16.4351 30.3099 17.2983 30.3099C17.6937 30.3099 18.0912 30.3306 18.4846 30.3099C18.9079 30.283 19.07 30.4465 19.0618 30.875C19.0422 31.8064 19.0618 32.7379 19.0618 33.6693V39.5124L19.0546 39.5052Z"
        fill="#2857bb" />
    <path
        d="M27.3818 43.915C27.3818 40.0368 27.3818 36.1596 27.3818 32.2835C27.3818 31.5115 27.4024 31.4918 28.1489 31.4846C28.5444 31.4846 28.9419 31.5032 29.3353 31.4753C29.8123 31.4432 30.0013 31.6026 30.0033 32.1159C30.0209 36.2555 30.0622 40.3869 30.0983 44.5225C30.1087 45.6609 30.0859 46.7993 30.1593 47.9325C30.2016 48.5907 30.1221 48.6477 29.4799 48.657C29.0152 48.6632 28.5506 48.6435 28.087 48.6663C27.6234 48.6891 27.4809 48.4883 27.4861 48.0516C27.4995 46.673 27.4912 45.2945 27.4912 43.9119L27.3818 43.915Z"
        fill="#2857bb" />
    <path
        d="M24.6105 41.9331C24.6105 43.9491 24.6105 45.9652 24.6105 47.9812C24.6105 48.6021 24.5558 48.6539 23.9322 48.6591C23.4851 48.6591 23.037 48.6446 22.5899 48.6591C22.1005 48.6818 21.9157 48.4624 21.9198 47.9822C21.9322 46.4298 21.9198 44.8775 21.9198 43.3251C21.9198 40.9103 21.9198 38.4979 21.9198 36.0879C21.9198 35.1875 21.9198 35.1865 22.7943 35.1854C23.1898 35.1854 23.5863 35.2051 23.9807 35.1803C24.4587 35.1513 24.6085 35.3645 24.6054 35.824C24.5899 37.8566 24.5992 39.8902 24.5992 41.9238L24.6105 41.9331Z"
        fill="#2857bb" />
</svg>