<svg width="60" height="55" viewBox="0 0 60 55" fill="none" xmlns="http://www.w3.org/2000/svg">
    <path
        d="M0.00308167 27.4951V4.49999C0.00308167 2.76008 0.782025 1.46154 2.26208 0.579985C2.89653 0.198451 3.6236 -0.00213925 4.36424 1.72057e-05C16.1462 1.72057e-05 27.9279 1.72057e-05 39.7095 1.72057e-05C41.9661 1.72057e-05 43.8998 1.84779 44.0549 4.09807C44.1258 5.12171 44.0886 6.14593 44.0909 7.1719C44.0991 10.2556 44.0909 13.3387 44.0997 16.4224C44.1057 16.5655 44.0798 16.7082 44.024 16.8402C43.9681 16.9722 43.8837 17.0901 43.7767 17.1856C43.2167 17.7192 42.6783 18.2754 42.1276 18.82C42.0486 18.8983 41.9725 19.0438 41.8517 18.994C41.7094 18.936 41.7704 18.7724 41.7704 18.6547C41.7677 13.9477 41.7677 9.24045 41.7704 4.53304C41.7704 3.75531 41.4799 3.12372 40.8474 2.66033C40.4245 2.35585 39.943 2.28335 39.4411 2.28335H4.64712C4.05057 2.28045 3.49874 2.39644 3.03637 2.81518C2.51359 3.28843 2.2888 3.88058 2.2888 4.5719V15.1853C2.2888 26.92 2.2888 38.6547 2.2888 50.3894C2.2888 51.0238 2.46015 51.587 2.9051 52.0573C3.36979 52.5492 3.95705 52.7197 4.61111 52.7197H14.1077C19.2678 52.7197 24.4276 52.7197 29.5873 52.7197C30.5747 52.7197 31.2997 52.2992 31.7028 51.3811C31.8492 51.0482 31.8863 50.6921 31.8863 50.3319C31.8863 48.6402 31.9206 46.9478 31.8759 45.2578C31.8399 43.8914 32.832 42.8103 34.3115 42.815C36.025 42.8202 37.7386 42.7819 39.4516 42.8266C40.8724 42.8637 41.7924 41.7861 41.775 40.5067C41.7448 38.1288 41.7698 35.751 41.7605 33.3731C41.7549 33.2493 41.7769 33.1258 41.825 33.0115C41.8732 32.8972 41.9462 32.7951 42.0387 32.7125C42.6196 32.1563 43.1778 31.581 43.7482 31.0161C43.8203 30.9454 43.8842 30.8114 44.0015 30.8584C44.1316 30.9106 44.0909 31.059 44.0909 31.1692C44.0909 33.6921 44.0648 36.2149 44.1002 38.7378C44.1392 41.5315 43.2649 44.0155 41.6705 46.2722C41.2395 46.8829 40.6778 47.3799 40.1561 47.91C39.2895 48.7915 38.3665 49.6221 37.5422 50.5407C35.4378 52.8821 32.8889 54.4045 29.7621 54.9166C29.3702 54.9763 28.9741 55.0041 28.5777 54.9995C20.5428 54.9995 12.5074 54.9995 4.4717 54.9995C3.39047 55.0072 2.34342 54.6216 1.52618 53.9147C0.708946 53.2078 0.177438 52.228 0.030964 51.1584C0.00323859 50.899 -0.00588497 50.6379 0.0036631 50.3772C0.00288861 42.7487 0.00269442 35.1213 0.00308167 27.4951Z"
        fill="#2857bb" />
    <path
        d="M22.0267 4.40139C28.7067 4.39327 34.1442 9.80495 34.179 16.4438C34.2144 23.074 28.8798 28.6493 22.0278 28.6406C15.2114 28.6319 9.88771 23.1378 9.88771 16.5158C9.88016 9.83395 15.32 4.40951 22.0267 4.40139ZM12.2077 16.521C12.1659 21.9338 16.6728 26.3636 22.0482 26.3491C27.3649 26.3358 31.8817 22.0602 31.8712 16.4926C31.8602 10.9614 27.3718 6.65109 21.9773 6.67661C16.5828 6.70212 12.1972 11.1076 12.2077 16.521Z"
        fill="#2857bb" />
    <path
        d="M48.2122 15.7606C48.3069 15.7606 48.3568 15.8233 48.4109 15.8766C49.6086 17.0719 50.8029 18.2719 52.007 19.4614C52.1917 19.6435 52.0779 19.734 51.9559 19.8552C50.1544 21.6531 48.3547 23.4504 46.5567 25.2472L34.5879 37.2038C34.0472 37.7437 33.5023 38.2796 32.9673 38.8277C32.807 38.9918 32.685 39.0162 32.5119 38.8399C31.9769 38.2947 31.428 37.7646 30.8855 37.2247C30.2704 36.6099 29.6692 35.9806 29.0407 35.3798C28.8281 35.1756 28.8217 35.0637 29.0325 34.8538C31.5035 32.4005 33.9691 29.9416 36.4293 27.4771C40.2758 23.6362 44.1221 19.7953 47.9682 15.9543C48.0443 15.8778 48.1047 15.7838 48.2122 15.7606Z"
        fill="#2857bb" />
    <path
        d="M7.31795 37.245C6.87417 37.245 6.86487 37.2345 6.86371 36.7891C6.86371 36.3159 6.86371 35.8424 6.86371 35.3688C6.86371 34.9419 6.87823 34.9268 7.30227 34.9268H15.8091C17.2988 34.9268 18.7897 34.9268 20.2818 34.9268C20.6831 34.9268 20.7023 34.9494 20.7029 35.3577C20.7029 35.8499 20.7029 36.3427 20.7029 36.8361C20.7029 37.2328 20.6918 37.245 20.2963 37.245H7.31795Z"
        fill="#2857bb" />
    <path
        d="M13.7714 46.0141H7.26916C6.87475 46.0141 6.86255 46.0025 6.86255 45.6081C6.86255 45.096 6.8701 44.5839 6.86255 44.0723C6.85732 43.8299 6.934 43.7278 7.19364 43.7278C11.5862 43.7336 15.9789 43.7336 20.3718 43.7278C20.6256 43.7278 20.7122 43.8189 20.7064 44.0677C20.6942 44.599 20.6901 45.1308 20.7064 45.6614C20.7157 45.9514 20.5995 46.021 20.3311 46.0204C18.1447 46.01 15.9578 46.0141 13.7714 46.0141Z"
        fill="#2857bb" />
    <path
        d="M13.7818 39.3288H20.2876C20.6942 39.3288 20.7 39.3375 20.7011 39.7284C20.7011 40.2504 20.6936 40.7723 20.704 41.2943C20.7087 41.5327 20.6181 41.615 20.3805 41.615C15.9853 41.6104 11.59 41.6104 7.19481 41.615C6.93748 41.615 6.85442 41.5193 6.85964 41.2734C6.87068 40.7514 6.85964 40.2295 6.86371 39.7075C6.86371 39.3566 6.89275 39.3282 7.24708 39.3282C9.42572 39.3274 11.604 39.3276 13.7818 39.3288Z"
        fill="#2857bb" />
    <path
        d="M47.2706 30.272C47.2009 30.2627 47.1373 30.2273 47.0929 30.1728C46.8669 29.9478 46.6433 29.7199 46.4138 29.4983C46.2704 29.3597 46.2849 29.2373 46.4202 29.1028C47.5111 28.0194 48.5938 26.9291 49.6899 25.8521C50.1157 25.4339 50.1279 25.4461 49.6992 25.0192C49.1381 24.4607 49.1416 24.4642 49.6992 23.9109C50.7407 22.8739 51.7828 21.837 52.8144 20.7907C53.0044 20.5976 53.1321 20.5692 53.3314 20.7774C53.8329 21.3009 54.3454 21.8138 54.8689 22.316C55.0432 22.4819 55.0432 22.5822 54.8718 22.7539C53.3058 24.3059 51.745 25.8631 50.1895 27.4255C49.3139 28.3005 48.4385 29.1755 47.5634 30.0505C47.4739 30.1375 47.4001 30.2465 47.2706 30.272Z"
        fill="#2857bb" />
    <path
        d="M26.7305 41.2363C26.5505 41.2491 26.5737 41.1238 26.6033 41.0043C26.7137 40.5641 26.831 40.1257 26.9402 39.6849C27.2082 38.6069 27.4743 37.5284 27.7384 36.4492C27.8388 36.0433 27.9027 36.0207 28.199 36.317C28.7113 36.8291 29.2143 37.3499 29.7249 37.8632C30.3377 38.4803 30.9546 39.0927 31.568 39.7098C31.6389 39.7817 31.7661 39.838 31.7295 39.9609C31.6981 40.0688 31.5692 40.0555 31.4797 40.0769C29.9404 40.4185 28.4162 40.821 26.8862 41.2015C26.8398 41.2131 26.7921 41.2224 26.7305 41.2363Z"
        fill="#2857bb" />
    <path
        d="M51.5429 13.736C52.4339 13.7725 53.2774 14.226 53.7943 15.1639C54.3276 16.1324 54.2654 17.1125 53.6782 18.0532C53.6631 18.0782 53.6456 18.1014 53.6282 18.1246C53.3558 18.4842 53.3331 18.4888 53.0224 18.1785C51.8786 17.0383 50.7413 15.8917 49.5906 14.7567C49.3896 14.5589 49.4361 14.4551 49.6353 14.313C50.1535 13.9448 50.721 13.7325 51.5429 13.736Z"
        fill="#2857bb" />
    <path
        d="M20.0215 19.0995C18.9179 19.0995 17.8142 19.1111 16.7141 19.0955C15.7614 19.0821 15.2154 18.1408 15.6946 17.3614C15.9345 16.9716 16.3051 16.8185 16.7518 16.8185H21.0177C21.4319 16.8185 21.4319 16.8185 21.4319 16.4027C21.4319 15.0989 21.4243 13.7928 21.4365 12.4914C21.4447 11.6156 22.284 11.0704 23.0589 11.43C23.444 11.6092 23.6839 11.9172 23.7199 12.3493C23.7728 12.9739 23.7437 13.5997 23.7379 14.2255C23.7327 14.755 23.7501 15.2851 23.7524 15.8146C23.7571 16.8179 23.7571 17.8207 23.7617 18.824C23.7617 19.067 23.6148 19.1018 23.4167 19.1013C22.2852 19.0995 21.1536 19.0995 20.0215 19.0995Z"
        fill="#2857bb" />
</svg>