<svg width="60" height="55" viewBox="0 0 60 55" fill="none" xmlns="http://www.w3.org/2000/svg">
    <path
        d="M0.00317857 1.65787C0.00317857 0.401681 0.394159 0.00852393 1.65716 0.00852393C12.2147 0.00852393 22.7725 0.00568249 33.3308 0C34.0926 0 34.6542 0.261039 35.1924 0.808689C38.5308 4.20114 41.8861 7.57512 45.2583 10.9306C45.7552 11.425 46 11.9588 46 12.6727C45.9908 26.2183 45.9908 39.7643 46 53.3106C46 54.6478 45.6578 54.9983 44.3492 54.9994H1.6063C1.2185 54.9994 0.82964 55.0239 0.492698 54.7597C0.068872 54.4262 0 53.9723 0 53.4737C0.00494464 48.7146 0.00741693 43.9555 0.00741693 39.1964L0.00317857 1.65787ZM2.36389 27.4922C2.36389 35.6253 2.36389 43.7584 2.36389 51.8914C2.36389 52.6373 2.36389 52.6437 3.08758 52.6437H42.922C43.635 52.6437 43.6456 52.6341 43.6456 51.9426C43.6456 39.299 43.6456 26.6555 43.6456 14.012C43.6456 13.4728 43.492 13.3141 42.9569 13.3183C40.1321 13.3428 37.3063 13.3301 34.4804 13.3301C33.0457 13.3301 32.7226 13.0104 32.7226 11.5912C32.7226 8.76844 32.7226 5.94531 32.7226 3.12182C32.7226 2.36534 32.7226 2.3632 31.9639 2.3632H3.14373C2.35859 2.3632 2.35647 2.36321 2.35647 3.14845L2.36389 27.4922ZM41.8645 10.9338C41.8271 10.8634 41.7843 10.7961 41.7363 10.7324C39.6581 8.63774 37.5789 6.54445 35.4986 4.45259C35.4149 4.36841 35.3302 4.22564 35.1998 4.27572C35.0346 4.33858 35.0939 4.51971 35.0939 4.65289C35.0939 6.58458 35.0992 8.51628 35.0854 10.448C35.0854 10.8923 35.2973 10.9754 35.6766 10.9743C37.6157 10.9647 39.5547 10.9743 41.4926 10.9679C41.5911 10.9679 41.6929 10.9498 41.8645 10.9338Z"
        fill="#2857bb" />
    <path
        d="M13.2255 50.631C10.7892 50.631 8.35221 50.631 5.9145 50.631C4.78288 50.631 4.34846 50.1931 4.34846 49.052C4.34846 44.1892 4.35058 39.326 4.35482 34.4625C4.35482 33.3459 4.77864 32.9208 5.89331 32.9208C10.7292 32.9208 15.5654 32.9208 20.4019 32.9208C21.6046 32.9208 22.0379 33.3534 22.04 34.552C22.04 37.3915 22.0898 40.2331 22.0252 43.0758C21.9775 45.1651 22.0474 47.2545 21.9722 49.3428C21.9404 50.2155 21.5134 50.6299 20.635 50.6331C18.1673 50.6353 15.6964 50.631 13.2255 50.631ZM19.6115 41.7663C19.6115 39.8133 19.6094 37.8603 19.6253 35.9062C19.6253 35.463 19.5108 35.267 19.0298 35.2723C15.1447 35.2872 11.2597 35.2872 7.37458 35.2723C6.95075 35.2723 6.77699 35.4023 6.77593 35.8498C6.76533 39.7913 6.74237 43.7335 6.70705 47.6764C6.70705 48.1527 6.8787 48.2838 7.32796 48.2816C11.213 48.2703 15.0981 48.2703 18.9832 48.2816C19.4748 48.2816 19.6242 48.1037 19.6189 47.6264C19.6009 45.6734 19.6115 43.7204 19.6115 41.7663Z"
        fill="#2857bb" />
    <path
        d="M39.9573 28.5407C40.1342 28.5407 40.3112 28.5343 40.4871 28.5492C41.1228 28.6025 41.6198 29.0819 41.6388 29.6626C41.659 30.2625 41.1716 30.8165 40.5401 30.8964C40.364 30.9126 40.187 30.9176 40.0103 30.9113C28.6588 30.9113 17.3073 30.9113 5.95582 30.9113C5.5765 30.9113 5.21412 30.8858 4.90261 30.6428C4.51057 30.337 4.29018 29.9513 4.41521 29.4389C4.47538 29.1964 4.61026 28.9792 4.80057 28.8185C4.99088 28.6577 5.22687 28.5616 5.47478 28.5439C5.64961 28.53 5.82761 28.5364 6.00456 28.5364L39.9573 28.5407Z"
        fill="#2857bb" />
    <path
        d="M5.9982 17.7145C5.6994 17.7145 5.39849 17.739 5.11241 17.6079C4.63136 17.3863 4.35164 17.0123 4.38342 16.4806C4.38793 16.2372 4.47283 16.0022 4.62475 15.8125C4.77668 15.6229 4.987 15.4895 5.2226 15.4333C5.47951 15.3711 5.74368 15.3446 6.00774 15.3544C17.3225 15.3544 28.6372 15.3544 39.952 15.3544C40.2522 15.3365 40.553 15.3755 40.8389 15.4695C41.3464 15.6677 41.696 16.2324 41.6219 16.73C41.5774 16.9946 41.4445 17.236 41.2451 17.4144C41.0457 17.5929 40.7918 17.6976 40.5252 17.7113C40.3313 17.7262 40.1364 17.7187 39.9425 17.7187L5.9982 17.7145Z"
        fill="#2857bb" />
    <path
        d="M17.5634 22.0903C13.6613 22.0903 9.75931 22.0903 5.85728 22.0903C5.57649 22.0903 5.28723 22.1266 5.02976 21.9689C4.60593 21.71 4.34316 21.3466 4.38448 20.8331C4.42581 20.3195 4.87082 19.8614 5.41968 19.757C5.64658 19.7235 5.87608 19.7114 6.10522 19.7207H28.9367C29.2192 19.7048 29.5025 19.7295 29.778 19.7942C30.4011 19.9786 30.8005 20.5241 30.7264 21.0962C30.6522 21.6684 30.1383 22.0893 29.4824 22.0903C25.509 22.0925 21.536 22.0925 17.5634 22.0903Z"
        fill="#2857bb" />
    <path
        d="M24.8023 24.1637C25.1022 24.1637 25.3999 24.1552 25.6849 24.2894C25.8906 24.3769 26.0652 24.5246 26.1862 24.7133C26.3072 24.902 26.3688 25.123 26.3631 25.3475C26.3684 25.8365 26.0939 26.1796 25.6563 26.3831C25.3932 26.4896 25.11 26.5369 24.8267 26.5216C18.5399 26.5216 12.2532 26.5216 5.96642 26.5216C5.77237 26.5238 5.57858 26.5067 5.38789 26.4705C4.76063 26.3415 4.31667 25.7896 4.37389 25.2292C4.43428 24.6293 4.9185 24.1818 5.5712 24.1722C6.66573 24.1563 7.76026 24.1722 8.85585 24.1659L24.8023 24.1637Z"
        fill="#2857bb" />
    <path
        d="M32.7268 46.188C32.7268 43.7161 34.7188 41.6789 37.1473 41.6736C39.5759 41.6683 41.6547 43.7502 41.6515 46.1901C41.6484 48.63 39.6087 50.632 37.1547 50.6246C35.9855 50.6168 34.8661 50.1474 34.0379 49.3175C33.2096 48.4876 32.7387 47.3637 32.7268 46.188ZM35.0918 46.1976C35.0943 46.746 35.3124 47.2712 35.6984 47.6586C36.0845 48.046 36.6072 48.2642 37.1526 48.2656C37.4323 48.2711 37.7102 48.2204 37.9701 48.1164C38.23 48.0124 38.4666 47.8572 38.6661 47.66C38.8655 47.4627 39.0238 47.2274 39.1316 46.9679C39.2393 46.7083 39.2944 46.4297 39.2937 46.1484C39.2929 45.8672 39.2362 45.5889 39.127 45.3299C39.0178 45.0709 38.8583 44.8365 38.6578 44.6404C38.4572 44.4443 38.2198 44.2905 37.9593 44.1879C37.6988 44.0854 37.4206 44.0361 37.141 44.0432C36.0221 44.056 35.0812 45.0447 35.0918 46.1976Z"
        fill="#2857bb" />
    <path
        d="M32.8836 37.4203C32.8801 38.5951 32.4165 39.7213 31.5934 40.555C30.7702 41.3887 29.6537 41.8629 28.4854 41.875C26.0325 41.8835 24.0352 39.8506 24.0352 37.3585C24.0312 36.7687 24.1437 36.184 24.3663 35.6384C24.5889 35.0928 24.9171 34.597 25.3318 34.18C25.7465 33.763 26.2395 33.433 26.7821 33.2092C27.3248 32.9854 27.9062 32.8723 28.4927 32.8764C29.0792 32.8805 29.659 33.0017 30.1985 33.2331C30.738 33.4644 31.2264 33.8013 31.6353 34.224C32.0442 34.6468 32.3655 35.1471 32.5806 35.6957C32.7956 36.2444 32.8958 36.8306 32.8836 37.4203ZM26.3959 37.3904C26.3891 37.6658 26.4373 37.9397 26.5375 38.1959C26.6378 38.4522 26.7881 38.6857 26.9797 38.8826C27.1712 39.0795 27.4 39.2357 27.6527 39.3421C27.9053 39.4486 28.1765 39.503 28.4504 39.5022C28.7243 39.5011 28.9953 39.4456 29.2478 39.3389C29.5004 39.2323 29.7295 39.0765 29.922 38.8806C30.1146 38.6847 30.2668 38.4525 30.3699 38.1974C30.473 37.9422 30.525 37.6691 30.5229 37.3936C30.53 37.118 30.482 36.8437 30.3816 36.587C30.2813 36.3304 30.1306 36.0966 29.9387 35.8997C29.7468 35.7027 29.5174 35.5465 29.2643 35.4404C29.0112 35.3343 28.7395 35.2804 28.4652 35.2819C27.3093 35.2819 26.4033 36.2046 26.3959 37.3904Z"
        fill="#2857bb" />
    <path
        d="M25.1011 48.3797C25.1011 47.9822 25.2717 47.67 25.5472 47.393C27.9842 44.9531 30.4191 42.5104 32.8518 40.0647C34.6969 38.2101 36.5402 36.3537 38.3817 34.4956C38.7261 34.1482 39.1181 33.9373 39.6182 34.0747C40.5718 34.3379 40.8336 35.3852 40.1088 36.1257C38.9083 37.3521 37.6919 38.5624 36.4809 39.7792C33.4244 42.8506 30.3665 45.9223 27.3071 48.9944C26.7191 49.5847 26.2126 49.6902 25.6574 49.3471C25.487 49.2507 25.3455 49.1101 25.2476 48.9399C25.1498 48.7697 25.0992 48.5762 25.1011 48.3797Z"
        fill="#2857bb" />
    <path
        d="M21.8239 12.1271C21.8266 11.966 21.8623 11.8071 21.9289 11.6604C21.9954 11.5137 22.0913 11.3825 22.2106 11.2748C22.8993 10.5875 23.5722 9.8822 24.2747 9.20883C24.5703 8.92541 24.5353 8.74855 24.2535 8.48218C23.5722 7.8429 22.9216 7.16207 22.2615 6.49509C21.7497 5.97833 21.6777 5.2943 22.0782 4.8223C22.5296 4.28957 23.231 4.2363 23.818 4.7637C24.5268 5.40298 25.2007 6.08275 25.8555 6.77743C26.184 7.12584 26.3949 7.1024 26.7085 6.76252C27.3082 6.11152 27.9471 5.49781 28.5733 4.87345C28.8689 4.57831 29.1942 4.33432 29.6467 4.41103C30.115 4.49094 30.4615 4.73706 30.6437 5.18882C30.8366 5.66402 30.6744 6.0689 30.3513 6.40665C29.7399 7.04593 29.1073 7.66603 28.4854 8.29572C27.9249 8.86149 27.928 8.85936 28.4748 9.40807C29.1105 10.0474 29.7579 10.6781 30.3746 11.3376C30.7073 11.6935 30.8482 12.1208 30.6204 12.6109C30.5391 12.8092 30.4038 12.9805 30.2301 13.1051C30.0563 13.2297 29.8512 13.3025 29.6382 13.3151C29.2398 13.3514 28.9166 13.1905 28.6411 12.9124C27.981 12.2465 27.2997 11.5997 26.6682 10.9072C26.3503 10.563 26.1575 10.6078 25.8672 10.9157C25.2103 11.6104 24.53 12.2816 23.854 12.9539C23.6845 13.1399 23.4585 13.264 23.2113 13.3068C22.9641 13.3496 22.7098 13.3087 22.4882 13.1905C22.0496 12.9891 21.8292 12.6173 21.8239 12.1271Z"
        fill="#2857bb" />
    <path
        d="M20.8946 12.1474C20.8713 12.6801 20.6234 13.0573 20.1222 13.2427C19.5924 13.4387 19.0309 13.2842 18.7448 12.7654C18.5043 12.3392 18.1991 12.2379 17.7541 12.2497C16.8365 12.2731 15.9179 12.2657 14.9992 12.2497C14.6686 12.2443 14.4461 12.337 14.2575 12.6407C13.8528 13.3066 13.1863 13.4931 12.5887 13.15C12.0208 12.8304 11.8587 12.1655 12.1967 11.4815C13.2202 9.41588 14.2469 7.35137 15.2768 5.28791C15.511 4.81591 15.8352 4.46324 16.401 4.44513C16.9838 4.42701 17.3631 4.74239 17.611 5.23996C18.6621 7.35172 19.7111 9.46454 20.758 11.5784C20.8506 11.7534 20.8977 11.9492 20.8946 12.1474ZM16.4604 9.88327C17.2836 9.88327 17.2836 9.8886 16.9075 9.14703C16.828 8.98934 16.7602 8.82739 16.6818 8.66651C16.5536 8.4076 16.4212 8.32556 16.2654 8.65159C16.1241 8.93571 15.9797 9.21984 15.832 9.50396C15.7038 9.74369 15.7547 9.87474 16.0376 9.8822C16.1775 9.8854 16.3184 9.88327 16.4604 9.88327Z"
        fill="#2857bb" />
    <path
        d="M8.83148 4.37587C9.73105 4.37587 10.6327 4.37587 11.5313 4.37587C11.7603 4.37294 11.9891 4.38826 12.2157 4.42169C12.896 4.53569 13.3092 5.03966 13.2605 5.67041C13.216 6.26175 12.7307 6.71031 12.0748 6.73588C11.5811 6.75293 11.0852 6.76678 10.5914 6.73588C10.1316 6.70605 9.97263 6.86374 9.98005 7.3368C10.0044 8.86255 9.99065 10.3883 9.98641 11.9183C9.98641 12.7909 9.53927 13.3226 8.82089 13.3258C8.1025 13.329 7.63735 12.7813 7.63311 11.9215C7.6257 10.3958 7.61616 8.86895 7.63841 7.34C7.64583 6.86906 7.48372 6.70072 7.02386 6.73588C6.56401 6.77104 6.10628 6.74867 5.64643 6.73588C4.91639 6.72096 4.37495 6.23298 4.36011 5.5969C4.34528 4.96081 4.86977 4.41636 5.59663 4.38972C6.53116 4.35669 7.46676 4.378 8.40236 4.37481L8.83148 4.37587Z"
        fill="#2857bb" />
    <path
        d="M34.9604 24.1648C36.6896 24.1648 38.4185 24.1648 40.147 24.1648C40.3938 24.1648 40.6407 24.1584 40.8759 24.2617C41.3379 24.4642 41.6261 24.8115 41.6261 25.3219C41.6261 25.8546 41.3294 26.2169 40.841 26.4119C40.5718 26.4999 40.2885 26.5361 40.006 26.5184C36.6861 26.5184 33.3696 26.5184 30.0567 26.5184C29.8629 26.5195 29.6692 26.5066 29.4771 26.48C28.764 26.3735 28.3603 25.9249 28.39 25.2793C28.4207 24.5974 28.8732 24.1712 29.6159 24.1669C31.4002 24.1595 33.1793 24.1659 34.9604 24.1648Z"
        fill="#2857bb" />
    <path
        d="M37.1484 22.0893C36.0888 22.0893 35.0293 22.0946 33.9771 22.0893C33.3138 22.0839 32.8275 21.6791 32.7469 21.0856C32.6664 20.4921 33.0415 19.9626 33.673 19.791C33.8779 19.7411 34.0884 19.7182 34.2992 19.7229C36.2064 19.7229 38.1052 19.7229 40.0082 19.7229C40.3259 19.7122 40.642 19.7734 40.9332 19.9019C41.4216 20.132 41.7098 20.669 41.6092 21.1602C41.5623 21.4156 41.4296 21.6471 41.2332 21.8159C41.0369 21.9847 40.7888 22.0804 40.5305 22.0871C39.4031 22.1052 38.2758 22.0893 37.1484 22.0893Z"
        fill="#2857bb" />
    <path
        d="M15.0596 39.7568C14.6686 39.8261 14.3539 39.7174 14.2279 39.1591C14.1219 38.6978 13.7097 38.4943 13.2435 38.5198C12.8123 38.5379 12.3757 38.6136 12.1839 39.0835C11.9922 39.5533 12.1617 39.9571 12.5018 40.2917C12.7892 40.5552 13.1124 40.7762 13.4618 40.948C13.9805 41.2148 14.4766 41.5237 14.9452 41.8718C15.7123 42.4663 16.133 43.2377 15.9751 44.2297C15.8119 45.2589 15.2556 45.9919 14.2247 46.2828C13.9238 46.3681 13.7638 46.514 13.7892 46.84C13.8295 47.3493 13.4862 47.3429 13.127 47.3451C12.7678 47.3472 12.469 47.3163 12.5061 46.8496C12.5336 46.498 12.3471 46.3649 12.0398 46.254C11.1615 45.9344 10.6094 45.3015 10.4081 44.382C10.2905 43.8408 10.4081 43.7161 10.9474 43.6852C11.4868 43.6543 11.8809 43.6777 12.0462 44.3426C12.1797 44.8753 12.6883 45.0799 13.3304 45.0522C13.5532 45.0518 13.7704 44.9819 13.952 44.8521C14.1336 44.7224 14.2707 44.5391 14.3444 44.3277C14.5425 43.8418 14.3794 43.3389 13.9206 42.9522C13.4862 42.5856 12.9839 42.3214 12.4955 42.0359C12.0006 41.7629 11.5509 41.4142 11.1625 41.0024C10.0744 39.7899 10.4611 37.9786 11.9604 37.3467C12.3228 37.1944 12.5569 37.0271 12.5304 36.586C12.5071 36.196 12.825 36.2035 13.0941 36.2152C13.3632 36.2269 13.7871 36.13 13.7807 36.5775C13.7722 37.0569 14.0255 37.2168 14.3995 37.3606C15.0967 37.6376 15.5491 38.164 15.7769 38.88C16.0153 39.6279 15.9221 39.7568 15.0596 39.7568Z"
        fill="#2857bb" />
</svg>